<svg xmlns="http://www.w3.org/2000/svg" viewBox="0 0 324 260">
  <style>
    .cell { fill: #4a90d9; stroke: #2c5282; stroke-width: 1; rx: 1.5; }
    .label { font-family: Arial, sans-serif; font-size: 10px; font-weight: bold; fill: #2d3748; text-anchor: middle; }
    .title { font-family: Arial, sans-serif; font-size: 14px; font-weight: bold; fill: #1a202c; text-anchor: middle; }
  </style>

  <!-- Title -->
  <text x="162" y="16" class="title">12 种五格骨牌 (Pentominoes)</text>

  <!-- Row 1, Col 1: F -->
  <g transform="translate(12, 30)">
    <rect x="0" y="0" width="60" height="60" fill="#f7fafc" rx="4"/>
    <text x="30" y="10" class="label">F</text>
    <g transform="translate(15, 15)">
      <rect x="10" y="0" width="10" height="10" class="cell" style="fill:#e53e3e"/>
      <rect x="20" y="0" width="10" height="10" class="cell" style="fill:#e53e3e"/>
      <rect x="0" y="10" width="10" height="10" class="cell" style="fill:#e53e3e"/>
      <rect x="10" y="10" width="10" height="10" class="cell" style="fill:#e53e3e"/>
      <rect x="10" y="20" width="10" height="10" class="cell" style="fill:#e53e3e"/>
    </g>
  </g>

  <!-- Row 1, Col 2: I -->
  <g transform="translate(92, 30)">
    <rect x="0" y="0" width="60" height="60" fill="#f7fafc" rx="4"/>
    <text x="30" y="10" class="label">I</text>
    <g transform="translate(5, 25)">
      <rect x="0" y="0" width="10" height="10" class="cell" style="fill:#48bb78"/>
      <rect x="10" y="0" width="10" height="10" class="cell" style="fill:#48bb78"/>
      <rect x="20" y="0" width="10" height="10" class="cell" style="fill:#48bb78"/>
      <rect x="30" y="0" width="10" height="10" class="cell" style="fill:#48bb78"/>
      <rect x="40" y="0" width="10" height="10" class="cell" style="fill:#48bb78"/>
    </g>
  </g>

  <!-- Row 1, Col 3: L -->
  <g transform="translate(172, 30)">
    <rect x="0" y="0" width="60" height="60" fill="#f7fafc" rx="4"/>
    <text x="30" y="10" class="label">L</text>
    <g transform="translate(15, 17)">
      <rect x="0" y="0" width="10" height="10" class="cell" style="fill:#ed8936"/>
      <rect x="10" y="0" width="10" height="10" class="cell" style="fill:#ed8936"/>
      <rect x="20" y="0" width="10" height="10" class="cell" style="fill:#ed8936"/>
      <rect x="0" y="10" width="10" height="10" class="cell" style="fill:#ed8936"/>
      <rect x="0" y="20" width="10" height="10" class="cell" style="fill:#ed8936"/>
    </g>
  </g>

  <!-- Row 1, Col 4: P -->
  <g transform="translate(252, 30)">
    <rect x="0" y="0" width="60" height="60" fill="#f7fafc" rx="4"/>
    <text x="30" y="10" class="label">P</text>
    <g transform="translate(17, 15)">
      <rect x="0" y="0" width="10" height="10" class="cell" style="fill:#9f7aea"/>
      <rect x="10" y="0" width="10" height="10" class="cell" style="fill:#9f7aea"/>
      <rect x="0" y="10" width="10" height="10" class="cell" style="fill:#9f7aea"/>
      <rect x="10" y="10" width="10" height="10" class="cell" style="fill:#9f7aea"/>
      <rect x="0" y="20" width="10" height="10" class="cell" style="fill:#9f7aea"/>
    </g>
  </g>

  <!-- Row 2, Col 1: N -->
  <g transform="translate(12, 107)">
    <rect x="0" y="0" width="60" height="60" fill="#f7fafc" rx="4"/>
    <text x="30" y="10" class="label">N</text>
    <g transform="translate(15, 15)">
      <rect x="0" y="20" width="10" height="10" class="cell" style="fill:#38b2ac"/>
      <rect x="10" y="20" width="10" height="10" class="cell" style="fill:#38b2ac"/>
      <rect x="10" y="10" width="10" height="10" class="cell" style="fill:#38b2ac"/>
      <rect x="20" y="10" width="10" height="10" class="cell" style="fill:#38b2ac"/>
      <rect x="20" y="0" width="10" height="10" class="cell" style="fill:#38b2ac"/>
    </g>
  </g>

  <!-- Row 2, Col 2: T -->
  <g transform="translate(92, 107)">
    <rect x="0" y="0" width="60" height="60" fill="#f7fafc" rx="4"/>
    <text x="30" y="10" class="label">T</text>
    <g transform="translate(12, 17)">
      <rect x="10" y="0" width="10" height="10" class="cell" style="fill:#ecc94b"/>
      <rect x="0" y="10" width="10" height="10" class="cell" style="fill:#ecc94b"/>
      <rect x="10" y="10" width="10" height="10" class="cell" style="fill:#ecc94b"/>
      <rect x="20" y="10" width="10" height="10" class="cell" style="fill:#ecc94b"/>
      <rect x="10" y="20" width="10" height="10" class="cell" style="fill:#ecc94b"/>
    </g>
  </g>

  <!-- Row 2, Col 3: U -->
  <g transform="translate(172, 107)">
    <rect x="0" y="0" width="60" height="60" fill="#f7fafc" rx="4"/>
    <text x="30" y="10" class="label">U</text>
    <g transform="translate(15, 15)">
      <rect x="0" y="0" width="10" height="10" class="cell" style="fill:#fc8181"/>
      <rect x="20" y="0" width="10" height="10" class="cell" style="fill:#fc8181"/>
      <rect x="0" y="10" width="10" height="10" class="cell" style="fill:#fc8181"/>
      <rect x="10" y="10" width="10" height="10" class="cell" style="fill:#fc8181"/>
      <rect x="20" y="10" width="10" height="10" class="cell" style="fill:#fc8181"/>
    </g>
  </g>

  <!-- Row 2, Col 4: V -->
  <g transform="translate(252, 107)">
    <rect x="0" y="0" width="60" height="60" fill="#f7fafc" rx="4"/>
    <text x="30" y="10" class="label">V</text>
    <g transform="translate(20, 12)">
      <rect x="0" y="0" width="10" height="10" class="cell" style="fill:#63b3ed"/>
      <rect x="0" y="10" width="10" height="10" class="cell" style="fill:#63b3ed"/>
      <rect x="0" y="20" width="10" height="10" class="cell" style="fill:#63b3ed"/>
      <rect x="10" y="20" width="10" height="10" class="cell" style="fill:#63b3ed"/>
      <rect x="20" y="20" width="10" height="10" class="cell" style="fill:#63b3ed"/>
    </g>
  </g>

  <!-- Row 3, Col 1: W -->
  <g transform="translate(12, 184)">
    <rect x="0" y="0" width="60" height="60" fill="#f7fafc" rx="4"/>
    <text x="30" y="10" class="label">W</text>
    <g transform="translate(17, 12)">
      <rect x="0" y="20" width="10" height="10" class="cell" style="fill:#f687b3"/>
      <rect x="0" y="10" width="10" height="10" class="cell" style="fill:#f687b3"/>
      <rect x="10" y="10" width="10" height="10" class="cell" style="fill:#f687b3"/>
      <rect x="10" y="0" width="10" height="10" class="cell" style="fill:#f687b3"/>
      <rect x="20" y="0" width="10" height="10" class="cell" style="fill:#f687b3"/>
    </g>
  </g>

  <!-- Row 3, Col 2: X -->
  <g transform="translate(92, 184)">
    <rect x="0" y="0" width="60" height="60" fill="#f7fafc" rx="4"/>
    <text x="30" y="10" class="label">X</text>
    <g transform="translate(15, 15)">
      <rect x="10" y="0" width="10" height="10" class="cell" style="fill:#68d391"/>
      <rect x="0" y="10" width="10" height="10" class="cell" style="fill:#68d391"/>
      <rect x="10" y="10" width="10" height="10" class="cell" style="fill:#68d391"/>
      <rect x="20" y="10" width="10" height="10" class="cell" style="fill:#68d391"/>
      <rect x="10" y="20" width="10" height="10" class="cell" style="fill:#68d391"/>
    </g>
  </g>

  <!-- Row 3, Col 3: Y -->
  <g transform="translate(172, 184)">
    <rect x="0" y="0" width="60" height="60" fill="#f7fafc" rx="4"/>
    <text x="30" y="10" class="label">Y</text>
    <g transform="translate(15, 17)">
      <rect x="0" y="0" width="10" height="10" class="cell" style="fill:#b794f4"/>
      <rect x="10" y="0" width="10" height="10" class="cell" style="fill:#b794f4"/>
      <rect x="20" y="0" width="10" height="10" class="cell" style="fill:#b794f4"/>
      <rect x="20" y="10" width="10" height="10" class="cell" style="fill:#b794f4"/>
      <rect x="20" y="20" width="10" height="10" class="cell" style="fill:#b794f4"/>
    </g>
  </g>

  <!-- Row 3, Col 4: Z -->
  <g transform="translate(252, 184)">
    <rect x="0" y="0" width="60" height="60" fill="#f7fafc" rx="4"/>
    <text x="30" y="10" class="label">Z</text>
    <g transform="translate(15, 15)">
      <rect x="0" y="0" width="10" height="10" class="cell" style="fill:#4299e1"/>
      <rect x="10" y="0" width="10" height="10" class="cell" style="fill:#4299e1"/>
      <rect x="10" y="10" width="10" height="10" class="cell" style="fill:#4299e1"/>
      <rect x="10" y="20" width="10" height="10" class="cell" style="fill:#4299e1"/>
      <rect x="20" y="20" width="10" height="10" class="cell" style="fill:#4299e1"/>
    </g>
  </g>
</svg>
